# xmcd CD database file
#
# Track frame offsets:
#	150
#	13288
#	24594
#	37992
#	52525
#	64308
#	78650
#	91519
#	104562
#	118079
#	131880
#	144506
#	157255
#	172640
#	185093
#	198717
#	213884
#	226067
#	238204
#	250616
#
# Disc length: 3472 seconds
#
# Revision: 0
# Processed by: cddbd v1.5.2PL0 Copyright (c) Steve Scherf et al.
# Submitted via: CDex 1.70beta2
#
DISCID=120d8e14
DTITLE=Howard McGhee - Bebop Story Vol 2 1946-48  CD 055
DYEAR=2008
DGENRE=Jazz
TTITLE0=Dialated Pupils
TTITLE1=Dialated Pupils
TTITLE2=Midnight At Minton's
TTITLE3=Up In Dodo's Room
TTITLE4=High Wind In Hollywood
TTITLE5=ElSino
TTITLE6=Ineta
TTITLE7=Wild Leo
TTITLE8=Leaping Leo
TTITLE9=Dorothy
TTITLE10=Night Mist
TTITLE11=Coolie-Rini
TTITLE12=Night Music
TTITLE13=Turnip Blood
TTITLE14=Surrender
TTITLE15=Sleepwalker Boogie
TTITLE16=Stoptime Blues
TTITLE17=You
TTITLE18=Yardbird Suite
TTITLE19=Donna Lee
EXTD=YEAR: 2008
EXTT0=
EXTT1=
EXTT2=
EXTT3=
EXTT4=
EXTT5=
EXTT6=
EXTT7=
EXTT8=
EXTT9=
EXTT10=
EXTT11=
EXTT12=
EXTT13=
EXTT14=
EXTT15=
EXTT16=
EXTT17=
EXTT18=
EXTT19=
PLAYORDER=
